name Walk3.mot
datacolumns 19
datarows 22
range 4.90300000 4.92400000
endheader

                time	   L_ground_force_vx	   L_ground_force_vy	   L_ground_force_vz	   L_ground_force_px	   L_ground_force_py	   L_ground_force_pz	   R_ground_force_vx	   R_ground_force_vy	   R_ground_force_vz	   R_ground_force_px	   R_ground_force_py	   R_ground_force_pz	   L_ground_torque_x	   L_ground_torque_y	   L_ground_torque_z	   R_ground_torque_x	   R_ground_torque_y	   R_ground_torque_z	
          4.90300000	          0.00000000	          0.00000000	         -0.00000000	          0.00000000	          0.00000000	          0.00000000	          1.79170421	         59.49795528	          2.46507099	          0.30525608	          0.00000000	          0.07475923	          0.00000000	         -0.00000000	          0.00000000	          0.00000000	         -2.16577750	          0.00000000	
          4.90400000	          0.00000000	          0.00000000	         -0.00000000	          0.00000000	          0.00000000	          0.00000000	          1.04402442	         55.58116665	          2.44324656	          0.30028178	          0.00000000	          0.07295216	          0.00000000	         -0.00000000	          0.00000000	          0.00000000	         -2.00314758	          0.00000000	
          4.90500000	          0.00000000	          0.00000000	         -0.00000000	          0.00000000	          0.00000000	          0.00000000	          0.34335390	         51.81996683	          2.41505568	          0.29504036	          0.00000000	          0.07110612	          0.00000000	         -0.00000000	          0.00000000	          0.00000000	         -1.84682282	          0.00000000	
          4.90600000	          0.00000000	          0.00000000	         -0.00000000	          0.00000000	          0.00000000	          0.00000000	         -0.31039708	         48.21120588	          2.38095874	          0.28953277	          0.00000000	          0.06922284	          0.00000000	         -0.00000000	          0.00000000	          0.00000000	         -1.69685046	          0.00000000	
          4.90700000	          0.00000000	          0.00000000	         -0.00000000	          0.00000000	          0.00000000	          0.00000000	         -0.91749001	         44.75168886	          2.34142244	          0.28376123	          0.00000000	          0.06730429	          0.00000000	         -0.00000000	          0.00000000	          0.00000000	         -1.55325393	          0.00000000	
          4.90800000	          0.00000000	          0.00000000	         -0.00000000	          0.00000000	          0.00000000	          0.00000000	         -1.47835828	         41.43819738	          2.29691687	          0.27772936	          0.00000000	          0.06535272	          0.00000000	         -0.00000000	          0.00000000	          0.00000000	         -1.41603331	          0.00000000	
          4.90900000	          0.00000000	          0.00000000	         -0.00000000	          0.00000000	          0.00000000	          0.00000000	         -1.99360576	         38.26750939	          2.24791213	          0.27144233	          0.00000000	          0.06337064	          0.00000000	         -0.00000000	          0.00000000	          0.00000000	         -1.28516591	          0.00000000	
          4.91000000	          0.00000000	          0.00000000	         -0.00000000	          0.00000000	          0.00000000	          0.00000000	         -2.46400390	         35.23641672	          2.19487461	          0.26490702	          0.00000000	          0.06136084	          0.00000000	         -0.00000000	          0.00000000	          0.00000000	         -1.16060718	          0.00000000	
          4.91100000	          0.00000000	          0.00000000	         -0.00000000	          0.00000000	          0.00000000	          0.00000000	         -2.89048771	         32.34174055	          2.13826367	          0.25813216	          0.00000000	          0.05932638	          0.00000000	         -0.00000000	          0.00000000	          0.00000000	         -1.04229172	          0.00000000	
          4.91200000	          0.00000000	          0.00000000	         -0.00000000	          0.00000000	          0.00000000	          0.00000000	         -3.27415100	         29.58034478	          2.07852894	          0.25112848	          0.00000000	          0.05727061	          0.00000000	         -0.00000000	          0.00000000	          0.00000000	         -0.93013479	          0.00000000	
          4.91300000	          0.00000000	          0.00000000	         -0.00000000	          0.00000000	          0.00000000	          0.00000000	         -3.61624129	         26.94914808	          2.01610831	          0.24390889	          0.00000000	          0.05519716	          0.00000000	         -0.00000000	          0.00000000	          0.00000000	         -0.82403403	          0.00000000	
          4.91400000	          0.00000000	          0.00000000	         -0.00000000	          0.00000000	          0.00000000	          0.00000000	         -3.91815443	         24.44513460	          1.95142646	          0.23648858	          0.00000000	          0.05310996	          0.00000000	         -0.00000000	          0.00000000	          0.00000000	         -0.72387133	          0.00000000	
          4.91500000	          0.00000000	          0.00000000	         -0.00000000	          0.00000000	          0.00000000	          0.00000000	         -4.18142885	         22.06536323	          1.88489324	          0.22888524	          0.00000000	          0.05101322	          0.00000000	         -0.00000000	          0.00000000	          0.00000000	         -0.62951499	          0.00000000	
          4.91600000	          0.00000000	          0.00000000	         -0.00000000	         -0.00000000	          0.00000000	          0.00000000	         -4.40773886	         19.80697434	          1.81690164	          0.22111913	          0.00000000	          0.04891148	          0.00000000	         -0.00000000	          0.00000000	          0.00000000	         -0.54082179	          0.00000000	
          4.91700000	          0.00000000	          0.00000000	         -0.00000000	         -0.00000000	          0.00000000	          0.00000000	         -4.59888549	         17.66719164	          1.74782517	          0.21321325	          0.00000000	          0.04680962	          0.00000000	         -0.00000000	          0.00000000	          0.00000000	         -0.45763916	          0.00000000	
          4.91800000	          0.00000000	          0.00000000	         -0.00000000	         -0.00000000	          0.00000000	         -0.00000000	         -4.75678264	         15.64331522	          1.67801510	          0.20519351	          0.00000000	          0.04471289	          0.00000000	          0.00000000	          0.00000000	          0.00000000	         -0.37980735	          0.00000000	
          4.91900000	          0.00000000	          0.00000000	         -0.00000000	         -0.00000000	          0.00000000	         -0.00000000	         -4.88343635	         13.73270242	          1.60779819	          0.19708888	          0.00000000	          0.04262692	          0.00000000	          0.00000000	          0.00000000	          0.00000000	         -0.30716132	          0.00000000	
          4.92000000	          0.00000000	          0.00000000	         -0.00000000	         -0.00000000	          0.00000000	         -0.00000000	         -4.98091186	         11.93272776	          1.53747533	          0.18893115	          0.00000000	          0.04055764	          0.00000000	          0.00000000	          0.00000000	          0.00000000	         -0.23953230	          0.00000000	
          4.92100000	          0.00000000	          0.00000000	         -0.00000000	         -0.00000000	          0.00000000	         -0.00000000	         -5.05128393	         10.24071475	          1.46732175	          0.18075347	          0.00000000	          0.03851111	          0.00000000	          0.00000000	          0.00000000	          0.00000000	         -0.17674838	          0.00000000	
          4.92200000	          0.00000000	          0.00000000	         -0.00000000	         -0.00000000	          0.00000000	         -0.00000000	         -5.09658505	          8.65386645	          1.39758826	          0.17258806	          0.00000000	          0.03649306	          0.00000000	          0.00000000	          0.00000000	          0.00000000	         -0.11863473	          0.00000000	
          4.92300000	          0.00000000	          0.00000000	         -0.00000000	         -0.00000000	          0.00000000	         -0.00000000	         -5.11877567	          7.16923766	          1.32850263	          0.16446474	          0.00000000	          0.03450869	          0.00000000	          0.00000000	          0.00000000	          0.00000000	         -0.06501384	          0.00000000	
          4.92400000	          0.00000000	          0.00000000	         -0.00000000	         -0.00000000	          0.00000000	         -0.00000000	         -5.11973688	          5.78374731	          1.26027085	          0.15641062	          0.00000000	          0.03256264	          0.00000000	          0.00000000	          0.00000000	          0.00000000	         -0.01570636	          0.00000000	
